<svg xmlns="http://www.w3.org/2000/svg" role="img" aria-label="AdReady branded project cover" viewBox="0 0 960 640"><defs><radialGradient id="bg" cx="68%" cy="18%" r="75%"><stop offset="0" stop-color="#4c4741"/><stop offset=".45" stop-color="#211d19"/><stop offset="1" stop-color="#100f0e"/></radialGradient><linearGradient id="panel" x1="0" x2="1"><stop stop-color="#1b1714"/><stop offset="1" stop-color="#2a221d"/></linearGradient></defs><rect width="960" height="640" fill="url(#bg)"/><circle cx="746" cy="76" r="230" fill="#a8855e" opacity=".08"/><rect x="64" y="70" width="832" height="500" rx="28" fill="none" stroke="#a8855e" stroke-opacity=".28"/><rect x="104" y="116" width="210" height="210" rx="26" fill="#161311" stroke="#a8855e" stroke-opacity=".42"/><text x="209" y="246" text-anchor="middle" font-family="Georgia, serif" font-size="84" font-weight="700" fill="#d5b083">AR</text><text x="352" y="144" font-family="Arial, sans-serif" font-size="18" font-weight="700" fill="#d5b083" letter-spacing="2">TELEGRAM-BASED PRODUCT IMAGE CREATION</text><text x="352" y="205" font-family="Georgia, serif" font-size="58" fill="#ffffff">AdReady</text><text x="354" y="254" font-family="Arial, sans-serif" font-size="22" fill="#e8ded2" opacity=".78">Product brief, image workflow, asset review</text><g transform="translate(104 380)"><rect width="190" height="96" rx="18" fill="url(#panel)" stroke="#ffffff" stroke-opacity=".09"/><rect x="26" y="28" width="74" height="14" rx="7" fill="#a8855e" opacity=".8"/><rect x="26" y="56" width="118" height="12" rx="6" fill="#ffffff" opacity=".16"/></g><g transform="translate(326 350)"><rect width="236" height="126" rx="20" fill="url(#panel)" stroke="#ffffff" stroke-opacity=".09"/><path d="M26 86 C70 48 100 70 132 42 C164 16 188 44 210 28" fill="none" stroke="#a8855e" stroke-width="8" stroke-linecap="round" opacity=".9"/><rect x="26" y="28" width="78" height="12" rx="6" fill="#ffffff" opacity=".16"/></g><g transform="translate(594 350)"><rect width="230" height="126" rx="20" fill="url(#panel)" stroke="#ffffff" stroke-opacity=".09"/><circle cx="62" cy="64" r="24" fill="#a8855e" opacity=".7"/><circle cx="120" cy="64" r="24" fill="#ffffff" opacity=".11"/><circle cx="178" cy="64" r="24" fill="#ffffff" opacity=".11"/></g></svg>
